<mxfile host="app.diagrams.net" agent="Mozilla/5.0 (Windows NT 10.0; Win64; x64) AppleWebKit/537.36 (KHTML, like Gecko) Chrome/134.0.0.0 Safari/537.36" version="26.2.5">
  <diagram id="kgpKYQtTHZ0yAKxKKP6v" name="Page-1">
    <mxGraphModel dx="1533" dy="1044" grid="1" gridSize="10" guides="1" tooltips="1" connect="1" arrows="1" fold="1" page="1" pageScale="1" pageWidth="850" pageHeight="1100" math="0" shadow="0">
      <root>
        <mxCell id="0" />
        <mxCell id="1" parent="0" />
        <mxCell id="Uo1aGH2p8OZAJki927kH-10" value="" style="edgeStyle=orthogonalEdgeStyle;rounded=0;orthogonalLoop=1;jettySize=auto;html=1;exitX=0.5;exitY=1;exitDx=0;exitDy=0;" parent="1" source="Uo1aGH2p8OZAJki927kH-1" target="Uo1aGH2p8OZAJki927kH-9" edge="1">
          <mxGeometry relative="1" as="geometry">
            <Array as="points" />
          </mxGeometry>
        </mxCell>
        <mxCell id="Uo1aGH2p8OZAJki927kH-1" value="" style="shape=image;verticalLabelPosition=bottom;labelBackgroundColor=default;verticalAlign=top;aspect=fixed;imageAspect=0;image=data:image/png,iVBORw0KGgoAAAANSUhEUgAAAQoAAAEKCAYAAADqyxvJAAAAGXRFWHRTb2Z0d2FyZQBBZG9iZSBJbWFnZVJlYWR5ccllPAAAAyZpVFh0WE1MOmNvbS5hZG9iZS54bXAAAAAAADw/eHBhY2tldCBiZWdpbj0i77u/IiBpZD0iVzVNME1wQ2VoaUh6cmVTek5UY3prYzlkIj8+IDx4OnhtcG1ldGEgeG1sbnM6eD0iYWRvYmU6bnM6bWV0YS8iIHg6eG1wdGs9IkFkb2JlIFhNUCBDb3JlIDkuMC1jMDAwIDc5LjE3MWMyN2ZhYiwgMjAyMi8wOC8xNi0yMjozNTo0MSAgICAgICAgIj4gPHJkZjpSREYgeG1sbnM6cmRmPSJodHRwOi8vd3d3LnczLm9yZy8xOTk5LzAyLzIyLXJkZi1zeW50YXgtbnMjIj4gPHJkZjpEZXNjcmlwdGlvbiByZGY6YWJvdXQ9IiIgeG1sbnM6eG1wPSJodHRwOi8vbnMuYWRvYmUuY29tL3hhcC8xLjAvIiB4bWxuczp4bXBNTT0iaHR0cDovL25zLmFkb2JlLmNvbS94YXAvMS4wL21tLyIgeG1sbnM6c3RSZWY9Imh0dHA6Ly9ucy5hZG9iZS5jb20veGFwLzEuMC9zVHlwZS9SZXNvdXJjZVJlZiMiIHhtcDpDcmVhdG9yVG9vbD0iQWRvYmUgUGhvdG9zaG9wIDI0LjAgKFdpbmRvd3MpIiB4bXBNTTpJbnN0YW5jZUlEPSJ4bXAuaWlkOjg2MzRFM0Q1MDhDQTExRjA4RDM5OUZDNDkwOUVFNjA3IiB4bXBNTTpEb2N1bWVudElEPSJ4bXAuZGlkOjg2MzRFM0Q2MDhDQTExRjA4RDM5OUZDNDkwOUVFNjA3Ij4gPHhtcE1NOkRlcml2ZWRGcm9tIHN0UmVmOmluc3RhbmNlSUQ9InhtcC5paWQ6ODYzNEUzRDMwOENBMTFGMDhEMzk5RkM0OTA5RUU2MDciIHN0UmVmOmRvY3VtZW50SUQ9InhtcC5kaWQ6ODYzNEUzRDQwOENBMTFGMDhEMzk5RkM0OTA5RUU2MDciLz4gPC9yZGY6RGVzY3JpcHRpb24+IDwvcmRmOlJERj4gPC94OnhtcG1ldGE+IDw/eHBhY2tldCBlbmQ9InIiPz6ri6t7AAAoaUlEQVR42uydCXyU1bn/TxKWQBISQgIkhCQsIeyIgBZQFhvBDe+1aKv4F7wqeGu1Lldb9LZVr15LrVfr0vYWam+RYt2o/uWqoFgIspRF2bewhIRAgISQmABJyHKfh3lecjLMTGafd+b9fT+f47zvMOA7zznnN8855znPiWpublYAAOCKdvyfqKgoWCKy6Ewlm0pfKmlUuklJptJdu+9IJVYKk+jg36qS11opdVROSTlJpUK7L6VyiMphKmdRDZFDFHsUEIqwpAOVwVSGyWsfEQYWiFQTPF+ZCAYLRyGV3VR2yGs9qg9CAfxPFypjqVwuwjCcSq7hEfpAA5Uzcl1NpVE68VnxSliMYqgkyGfi/PT/3EdluwjHN1TWU/kW1QyhAJ6RRWU8lavkdSiVaDf/br38khfKa5E2POBf+XJtqHDei2drrw1dUsR7MYY1WeLR9JHXDm7+m01UdlJZS2WNvBahGUAoQGuSqORRuYHKFCq93Pg7J+VX2fhlLhBh4HkCM8xQR8n8CAvGAM0TGi7zJG1xlMrnVD6lsoJKJZoJhMJydqcyUoThOhlWuPIYTsivLLvoW0UYToTx9+8hwnGZfPfx8p4rj4O/+zIRji0mEUPrgOXRoDKKyn9RKZaG7qzsovIHKjOp9LOIbfrJ9/2DfH9X9ikWO45Ck4JQRJI4zKNy0EXDZ7f6Ayr3UEmHyS6QLvb4QOzjzHYHxb4QDQhF2METe4/IEMGV1/C8sk1YxsBkLokROz3fhrexQ+yeDJNBKMw87zCJytvKFpjkqCHvpfKcjM+B9wwTO+51YudaqYdJUi8AQhFyOMbgUSoHXIyn2TUeCVMFhJFiX2fzPgekfhJgKghFKOAlzBedjJ85PuEjZVvViIapgkK02Psjsb+jeaAXlXtLzwBC4TMcB7BI2QKbHE2sPUWlJ8wUUnpKPTiaQK6X+hsOM0EoAuXifuTEvV1F5SaMh01HlNTLKif19hGGhBAKf8EbrpY4aGS8Z+EdKqNhorBgtNRXg4O6XCL1DCAUHpMjDavJrlGdo/KqsoUmg/AjW+rvnF29Nkl958BEEAp34DX41xz88vDY9g1l278Awp80qc96B57iawqxGBAKJ/D26QeVbaelfcPhsOJMmCgiyZT6tf9hqJD20A4mglAYTFWOI/4WU+kP81iC/lLfjiJop0IorC0UvJ/A0UTlRirj0HcsyTipf0cTnukQCmvBy2Zz1KXBUseo3K2wzGl1oqQdHFOXBm3NsWT7sKBQcBKVfHVpJOUvqcSjjwCNeGkX9pGe+dKOIBQRCO9AfFJdumFrg8ImLeCaYdJO7DeePamssvPXIkLBE1Xr7Cq6Rtm2JGOLN3D3h+YRaTd6O1qnrDDhbQGhmO2gcjmlWjbaPvCCbGk/9j86syEU4QkfZvOeXYVyavr70daBH7hf2pPevt5Tjg9RglCYlDHKlq5er0Q+PyIX7Rv4kVxpV3o7K5T2B6EwOQ8o27F3egz/r5T7Z0wA4Ancrl5UrfcE1Uk7hFCYkE7KlmfAPi5iMtoyCAKT1aVxF4ukXUIoTEJvKl/bVdLfleuzIgDwNz2k3ent8GtpnxCKEMMhtyfsKoeDZLDsCUJBjLQ/vT2eUOG+JSDMhWKGah1AxctUt6KtAhNwq2q9LF8r7RVCEWR+YafahxXyIAJzMVzapd5OfwGhCJ5rt0BdGh3XHe0SmJDu6tKo4AVhNzQOM6HoTGWpndE5fVks2iMwMbHSTvV2u1TaM4TCz3DE22o7Y/NBtdgSDsKBKGmv9rtQEyEU/iNVXRoB9wjaHghDHlGXRgynQij8IxL6Yb+NVGaivYEwZqa0Y/1w5VQIhfdkUNmtWmfCvhntDEQAN6vWGcB3S3uHUHjhSegicZbKtWhfIIK4Vtq1LhapEArvhxtszGvQrkAEco2dWJhzGGJCoeBZ4G8gEsDCYvGNMttqiMmEgteVV9vNSWC4AawyDNHnLPKVmeIsTCQUHKmmB1PxrDAmLoGVuFm1Xg1ZqswSwWkiobAPy8YSKLAiM9Wl4d4QCsF+gxeCqYCVsQ/KCv1GMhMIxQx1aVg2AFbHPtw7tFvUQywUnMxDzyfBG2ewdwMAWz/QN5LVqlAmvwmhUHB6MD0zFW/FxS5QAFqIVa23qJ9QoUqrFyKh4ISjeo7Lwwr5JABwRHfVOvnN1yoUCXtDJBR6tmxOF4bMVAA4Z7hqnVZvkRWE4gHVepIGOS4BaJtb7fpNcM8NCbJQ8AlK+uE8v0T9A+A2enbvOhXME8mCKBQcu64f88fnHyClPgDuE6NanxtSqIK1JySIQqEfGMwnKuFwHgA8p4dqfSLZe5EkFLNV67NAccwfAN4zWbU+63R2JAhFf9V6xvZXqGcAfOZF1XrlsH84CwWPqfSAEd5nj1PFAfCdDqp13pZ1KpBzfgEWiie1L3KGSi7qFwC/kSv9yuhjT4ajUAxQrfdx3I96BcDv3K9a7wcZEE5CwRta8rUvsAz1CUDAWKZaZ8by/8bKAAnFHNV6oiUbdQlAwMhWrRcM5oSDUKRTqVRIQgNAMNGT3VRKPzS1UCzRHniDQvQlAMEgRvqb0feW+HUugYUiKspvQ5qpqmU+ooHK5cp2TgEwAStWrOCKTqASJ4WzPHPOgw5S+M/bUYlWtoCeBtWSDZ0LT5ZxWvkzUqrz8vKaYVnTMEzZlkzbyf11VJabTSj44bZRGSz381Qgl2uAO8LQRdnyGfCBMinKti8g2o//CxaTKirlVMqonCTh+BaWDym8cWyuXPPJYyNE8E0jFA9SeV2uS5VtmaYG9RZUYYiRsWkvKXEheAz2NI5KOUbC0YiaCSrxVAqopMn9Q1TeMItQJFM5QKWr3P8LlT+jzoI2nGBx6KNsadLam+jxzlM5omy7HI9hmBI07qbyP3J9WtnCuyvMIBSviXIxm6hcKWNbEDiBiBWvLSdEnoM3nsZ+/rUjwahFDQYU7tA8sWnkq2BP/8ehFgpuqHtUy+rGeGWLOweBEQieZ+B5oL4qPFeUeChyiMfPJBhVqNGAwRm712o2HyRCHTKh4JTiP5Drt6nciToKiEDwasVwEYhIONKgWQRjOwlGNWo4ICxWLeeBvEvl9lAJBf+y7ZSGy6o1UOYqgP8EgpctR4htI/HMExaMvVS2kWDUo8b9Sn+xbYzYeaiyrYR4jK9LZc9pjfdNiITfRYKHdbeI2xipByNFyfe7Rb4v8B8HpF8adn4uFB7FSGUL7mDOi3oVo278IhAc//AdKj0t+PWPU/kH4jH8RqYIhrEaxkGQW4LpUTytXc+HSPhNJHgl4yaLioSS732T2AH4TrH0T0f9NuAeBU+qbZNrXuriCbZS1InPcxG8YtQb1rgIx2CsxdyFz3DwFU8cG0d28pzX9mB4FE/YeRMQCd9EggPVboRIXALb40axD/CeUjuv4olgeBQcGlwoY55GmZs4jLrwWiS4M1ytWjbygEvhvQpfkWdxBKbwmmyZq+AVEJ5T5Ejeo4H0KB5WLRMjH0AkfBIJnu2fBJFoE7bPJLEX8I7D0l+V9N+HA+lRJMi40TidiENEN6MOvBIJnn0eCkt4zE7yLL6BGbxitLJtsWCqZGjnVrCbpx7FfZpI5EMkvBaJKyASXjNU7Ac8Z7P0WyX9+L5ADD3Y7fiRdv8S7O6VSLAXNhCW8ImBYkfgOXq//ZFyM5DPk6EHj6VXyjUvtfAkJnaIeiYSHKQ2DJbwGztoGLIFZvAI7uw8qdlX7vl4wlX+9Cj0zL5vQiQ8FolciITfGSZ2Be7TrFrCuu37tc8eBSem4ROUOyrbUhVPghyHzd0WiQxR7ihYIyANfyV5FiUwhdtw9CsvSvBqUp2yJT6q8IdHMVNEgvkEIuGRSPCk0QSIREBd6QliZ+Aex6UfK+nXM/019LhXu54PO7stErxePUkhTiLQGHEW7WEKt5nvpH97LRSjVMtSHrsrOB7QfTglIH7pgkOi2Bu4xzLpz0r69yhfheI27ZozWDXBxm55Exwi2xeWCCp9xe6gbZqkPzvq5z4Lxbuwr1siwQfrfAeWCAnfEfuDtnnXX0IxSvtV3Ke8SHhh1caqzJU230q0h0i7zRbp10r6+ShvhWKGdv0+7OqWN5FFLxmwREjJkHoAbfO+k/7utlBE2bkj78GmbYoEb+EdDUuYgtFSH8A179kNP6I8FQoONzYSqXDmXhw23DY8exwHM5iCOIWNd+6wQ7Vk5u4t/d4jobhBu/4Q9mzTm+A0Y0NgCVMxROoFuOZDJ/3eLaG4TrtG7ETb8D4OBFaZi3YK+2vcYZmTfn8RZ3s9kqicEiHhBBfdlC3tHXDsTXSil++p8DziL9Lhdvu3vLy8czCFS0EtV7agtSbp75XueBR52p+tgEi0yUCIhGmJUcj/0RYN0s8NTchzd+ihj1M+hR1dehOsxtjqbG5ypZ6Acz510v9dCsUUzE+4DQeqdIAZTE0HhXD6tljmpP87FQoOVOkl17xscgw2dAnOy0Q9RQLHVMsyaS/RAZdCMV67XgP7uRx28ME03WCJsKAbDhJqkzVOdMChUFylXa+F7VyCnYqor0hirRMdaNOjgFC4BvsJUF+RKhQuPYouqiXs9QSVg7Cd02EH5xFNgCXCigSpN+CYg9LvlehAF2dCMVZ7D96Ea7BDFPUWyV5FtOiBQ6G4XLteD5u5JB0mQL1FIOsd6YG9UOhx8VthM6fDDg7eSYUlwpJUBF+5ZKsjPbAXiuHaNbaVOydFIf1+uBIl9Qccs8ORHuhCwdFrRijySdUyqQEupTtMgPqLUE5I/1eiBx3shWKwatkmvR32cgmCrFB/kYzR/9uJLrQSimEOPggckwQToP4sIBQXdcHeo3A0TgEakocR8RPhTQLyabpkh70u6EKhh7cWwFZOQWo11GOkU2CvC7pQ6NtwD8NWaGCoR8ty2F4XdKHIltd6KqWwFRoY6tGylIoOXNQFQyj4CLZUTU2aYSun4AQw1GOk06x5FawLnaPtvAmmEHZyCbJZoR6tgK4D2dH6OMTB+ARcCmbLUY9WQNeBvoZQpGlvFsFGLsE+AdSjFdB1IM0QCj1SrQI2AsDy6DrQzZFQnIKNALA8pxwJhZ71pww2AsDy6DqQbAiFvpuuHDZySRNMgHq0ALoOdMfQAw0M9QjcHnpAKNznPEyAerSqUHSU1wYYEA0M9QjEPg2GPhhCYcS9n4F92qQeJkA9WgRDD2LthQK0TS1MgHq0GLH2yXWrYZM2OQcToB4twkU9MIQiUV4bYZs2qYOdwp5GqUfQtp0u6EM0xm2ekZeXx1twq2CJsKZK6hG4pt7eozA4C9u4xWmYAPVnAc46E4rOsI1bIHoV9WcFOjsTCiTzcI+TMAHqzwJ0sBcKY8yNZB7uUakQsBOunJf6A21j6EGVvUeB8yrcQCbCkIA4PCnFRKbbJNh7FAg+8ZyjMAHqzSLU2gtFHGyCBod6A3Z6cFEojOATziOINObuDT946QiTYuHFSak30DbtVUte0TpDKFptKYWN3OYwTID6ilBapZ6AUPje8JAAJTxoglD4LhS6C50CG7k9/OC5nSOwRFhwROoLuIeuAycNodBTc6fCRh6Bk99RT5GIrgMVGHr47lVwPAUCeMxNpdQT8HHooQtFMmzkMbthAtRPhJHsSCh0tc2CjTzmkEIaQbNyRuoHeIauA6XRWkM3yIaNPB5+8Iz6dljClGyX+gGeoevAIUMoDmtv9oGNvOKAQipBs1Et9QI8R9eBw4ZQcLRamaYkUbCTx14FbzTaDEuYis3YAOYVUZpHwbpwVt89angVvAc9DbbySiw4puI4LGEKjkt9AM9JUy25KC7ogi4UmKfwDxsUojVDTZPUA/CObHtd0IWiULseAFt57VVwEiBMbIaW7VIPwDsG2OuCLhT6WvMw2MondiokcA0Vp8X+wHuG2euCLhQ7tOvhsJVPXgW7vqsVzv8INmzv1VgO9Znh9rpg71E0QCj8OgTBKkhw2Ywhh1+FosGRR8GHfeyT6+5UesBePosF2xNRgcHhkNgb+EYP6f9K9KDeXiiY7U7GKcB7/qFa784F/qdC7Ax8Z5gjPbAXCn2e4jLYzC9eBbtvKxVOYQsUbNeVYmfgO5c50gN7ofhGux4Lm/lNLHhj0t8VzgLxN2zPv4t9gX8Y60gPopqbm1VU1MWI7S7KtrzEAnKCSk/YzX+sWLGC7fldhYOW/AGvcHxJIoFIWP/C9uR5Cl456krlW0ceBb9prEHzh/vBbn71LLgSVilEbvoK228VRMLv9FMtixg7DZFwJBTMWu16PGznd7E4KsMQxFh470n8XewI/Mt4JzrgUCjWQCgCLhbH2G3GnIVXcxJfiv1AYIViTVtCoSvJVbBdQIchyxQyY7kL22kZhhsB5SpnHoX9ZKZBCZVecs2vUPAAsWLFis70MknhmARXlMucBJaYA0e6ajlukV8z2vIomM+16+tgw4B6Ftz4l1PZD2s4hO2yHCIRcK5z0v9dehS3UnlfrpfIPQi8d8GzzleqljMfrQwHUG0ggTgIUwSFD6hMl+vb5L5NoUhSthT+7HHwJhvO8Y9Z+uCIRYKMFa18EBOnX1tDIoEcpMGhnQzvEpVt6Zn7e6U7Qw/+0Hq55r+MKM3gDUW4c/Ak5ybVspvXSl4Ef+9lEImg8h3p50r6faUjJXEGN9bx2vhlDewZNLHghLB7yLsoptfRyhpnrRQp2zZxrAKFdn5imaMPOBt6MJdT+VqueU/6ENgzZMORniIYkXiKW4UIBJY9Q8cuKoPlepRqveerTaGIEpXvLfeczGIHbBpSweC64N19XSPg6/Ceoq3IlB1yeFu5sZ38iHivzZ4MPfjDvPLxmNx/H0IR8iEJV+QREowM+QUIx0177Dnspu9Sgho1Bd/Xrt93JBJteRSGG2Kkc+NsNwNhV1N5GOxZ5FDpq1rOYTAjnCWJM33tJ4FA0mFzsZdKrlyP1qYbPBIK5qA0RGPeYgtsazrB4G3rGeI2ZihzxGHwCkaJDF9LSCCwvG4+RmrzESzkTneLu9Og2B35qVz/AEJhyiFJo3TIIhENHpJwSC6f+JQUxEfhZbVSZQv5Pw5xMD0/sOvnTnHHo9CHHzxGzlbIpxBO3kZHZQve4iCariIcHNTly/myPI6tFmHgoQQH55WRMNTB4mEDx1AdVi2LFU6HHe4KBcOTmEPl+kYqn8LOYTMkiZFGob9yaS/zGh3Fs9Q/Gy0/BlwapfBQok7mG85r7zfpr/AiwoYbqHwi15ykZpivHgXzCJVX5Pr/U/ln2DkkHZ87N+827UQlVl472d3Higi0D+GjnpdSS+Wc9nrO7v4sCQtycoSGj6j8k1w/SuU3/hCKZBl3dpRfFnZXECDjfyHgX/I4KvEyPNBf48X+kQZ7KTVSqu1ez+DUr4DQU6YR2on9eT7L5ZES7s6O8z/yNyp3yN+5h8oLsLfXghAlApCozRskyX2UxczRUUo3R3MhZKsqmQsx5kP4vlrC3IF33KP1/b8pN86dcdejYCYp2/kUDC+l9FdOgjPAJV4Ci0GKlK4iCMjE7T2NIhgsHOVSTsP7cAvu7AdUS8jDZGVL+Ow3oeAPcRIRY611GpX/hd0vEYYETRRSZNgGUQiOeFRowlGOHagOuYnKUrnmGKkcd37wPREKY9LjZbnOFy8DwmAb8/WQsV4s2qJp4ElTnlvjM2qOQzguwN7DRLnm7RmvuOUleCgUCTIJYuxdH6MsdmK35LhME3HgEoe2FzbwFvbjUkotmF6PYyU2yTUP3XhRojoQQsG8SOUJuX6Xyu0WEIdkMWpvFZlbva1KhfzwHSHRsMJB0u+olmjMX1P5idsTG14IBWflLlS2dXoeF/Kk5uEIEwYjDDpDxKEz+lTEc1ZEo0RFZvh5trJNYnLb5tiVPqol63ZAhIJZROX/yfVrVB6OAHGIEnHg2eBMFdqAJRBauCNxdrFDIhqRsLr3KpUfy/VfqNzlyV/2Vig4ic02ua6VzlUapgKRIurKitsJfQTYcU485kISjPIw/Q5pInrGRPsI1ZKsJqBCweghoL+l8mAYiQMbLEeGTQnoC8BNqsV957watWH03G9Q+ZFce7UFwxeh0Peyn5dOV2xygeChRa7MO0Sj3QMvaZK2XhAGuT4zRdyMobRXOWV8EQqGDwf6nlzPp3K/CcWBd0hykNgA1bKsC4C/4GXGAioHSTTqTfh8f6AyR645XHu6N/+Ir0LBeRt5iyr/AzxLPFDUywwCwZuoBskQAydvgUDDmyU5cnkPCUaNSZ6JvXxOdccrHTwhy6kidodCKBh9bfZtKneGWCDYa+DJmixlvQ1WIPRwh+RsY9tIMKpC/CyLqcyQa59invwhFPyLvUe17GfgQ4PWhUAgOBBquIzJADADPI+xPUTBXOOorJXrRvGu94dSKBiOpXhIrjlE9EoVpJ2lJBBdlO2si2y0S2BSDivbGSbfBun/xx16g7JtsWBeVy0xFCEVimSZmzAOpvkXKn8OsEDEikDkYIgBwmRIsl8EI9BLq3dT+R+5Pi1zFRVmEArmQVEuhoOveJWhJgACESNuFOf4Q/QkCDc4lIBz0O4JUJg4T+LzKkya3LOn/4bPLoofhYJXFjha0zjDcB6VJ/0sEvzl+eRlBEmBcIeHIRtILPwd0fxLKnPlmlc4eGK/wUxCwUxVLach88NdrvxwDKEMM67APASI0PmLjX4ajrCX/Y1qCQfgU8qX+2XSw89CwehBWBuVbfa10QeR4GAp3kffEW0KRCic4JZPdD/ow7/BQ/J18oPKeB1cFSyhSBeXx4iCbDMVuAsvYqxqOaAEgEiHt7mv99K70I/UqJIpgGNmFgqGQ0b/INecVWio8iBnBYkE57zgeAyklQNWg0ViLYnFUQ/+Dg/JOULayLbGWynm+/OhAiUU/A+uojJB7pfLeKktgeC/d5lq49QiACwAz+1tdTMXBs8LTpXr1cqWy7Y5HISC4eXR7drcwr9qXoYjkeDPcdLPnmgjAFyAd6bmt3GmK3sP/63NdXB0coG/HySQW635YZ/V7jl7d64TkeBArZsgEgC0gvvDTdI/HJGrWrLiK+lvBYF4kEB6FAzPxH6lbJOSDO+D5ziIerv5CPYksMMTAMc0iGehz1tw+oR/KFteGGY9lauVDyuMofIolDz0TGWb0FTypZ7XRIJDS6+BSADgEu4f10h/MXheE4kz0s8ClhA40B6FwWzVMgvLkyzfpS/NSzdXog0A4BEczckhCF+qlj1OvMq4IJD/02Clg+Mv8b4hTjExMe/u3bt3CuocAM/gfsP9RxOJ9wMtEsH0KBgOwNqqJAw7NTV1z8KFC1/s0KEDDpYFwA3q6+ujZ82a9ZOysrJB8tZhZQsnCHiCnGAmmK3q2LHj7SRKFzao8JedO3fudFQ/AO7B/cUQCe5H3J+CIRLBFgpVV1e3ITMz8+Jk5vbt22964403xqAJAOAa7ifcX4x77kfcn4L1/w96yvqioqJnadhxcUfb0qVLZ3/++efYzwGAE7h/cD8x7rn/cD8K5jOE5GyL9PT0WxMSEi7slGtsbOz4+uuvP1JQUNAFTQKA1nC/4P7B/YTvud9w/wn2cwRzMrMVgwYNyjlw4MCm8+fPX9hlmpycfGDBggXzEhMTz6N5AKBUVVVV+9mzZ8+tqKi4ED/Rvn37qv79+4/Zs2fP/mA/S8hOy+Iv26dPnztIpC4IAxvj0Ucfnd3U1IT8l8DycD/g/mCIBPcT7i+hEImQCoW4VZ/17dv3CeO+uLj4SjLO7WgmwOpwP+D+YNxzP+H+EqrnCfn5mwcPHnw1IyPjt8b9rl27rnvmmWemoqkAq8Ltn/uBcc/9g/tJKJ/JFAf1lpSUPNizZ8+Pjfs1a9bMeOmll8ajyQCrwe2e279xz/2C+0eon8s0J3r36NFjenJy8nrjfvny5bPnz58/Ek0HWAVu79zujXvuD9wvzPBsIVv1cERWVlZ8ZWXluqqqqgsZrui5Gu+6666XZ86cuRPNCEQyb7311tBFixY9Rv3xwtGciYmJO5KSksYVFRWZ4sDjaDMZi42SnZ19TXx8/IUYCzbaX/7yl4cXL148GE0JRCrcvrmdGyLB7Z/7gVlEwnQehcHgwYN7kZHWnjlzJuuCmkVH18+aNeuVO++8czeaFYg0kVi4cOGjTU1NnIhGxcXFFZFnPX737t1HzfSc0WY0Hhupf//+V5HRSviejcjGZPcMTQtE0nDDTiRKuN2bTSRM61EYDBgwoN/Ro0dXkWeRYcxZ3Hbbba/PmTNnC5oZCGd44vL9999/yBhusEj06tVrUkFBwUEzPq+phYIZMWJExoEDB9YYwxB61uapU6cuePzxx9eiuYFwhJdAeXWD+l6UMdxgT2Lbtm0lZn1m0wuFMWdRXFycX1NT089476qrrnr7mWeeWY5mB8IJDqbS4yR44jIzM3OiGYcbYScUzBVXXJG6b9++L42lU2bIkCHLXnnllXeio6Ob0QSBmZG9G7frEZe8BJqbm/vdjRs3lpn9+cNGKBiOs6iurv68oqLCSP/PCTw2kFgswK5TYFZ4Fyhv8NL3bnAwVUJCwhQzLYG6IjqcDM5G7d279wQ93JuNz1txkc8CmBFul9w+dZHg9svtOFxEIuw8Cp2MjIw3SkpKfmTcd+rUqfyhhx76zZQpU46geQIzwJmpOOnMuXPnUrR2+1sz7N2wjFAwffv2/XFhYeFL9B3a831MTEzdtGnTFjz44IOb0ExBKOEcl5y+zshMJfkkHj906NBr4fh9wloomAEDBlxPYvFXI1MWM3z48P+dN2/eEhwFAIINp9TnbNl6IlzOTMVJZ0KZT8LyQsFwWj1y5z6rrq6+uHzK54Y8/fTTvx84cGAVmi8IBnv37k189tlnf6idu3EhxyUNN64PVWYqCIUdI0aMiD927NgHVEkXk9507NixcsaMGf9955137kEzBoFk8eLFg95+++1/raurS9J+rJZzItxt27bVhPv3ixihMMjKynq6uLj4Z/S9jIOPm4cNG/bZc889tyQ+Pr4BTRr4k5qamnY///nPp+/YseN6Jcf88eE8fO5GsFPqQyg8hINYqJLerq2t7W68l5iYWPTwww//fsKECaVo3sAfrF69Ou3VV1/9YVVVVZbxXmxs7En6sZrBwYGR9F0jUihkKJJy9OjR98rLyycb78XExNRPnDjx7aeeemolmjnwhRdeeGFyfn7+jMbGxg7GeykpKSt79er1fRpqlEfa941YoTDIzs5+6siRI78wlqmYnj177iDv4s9jxowpR5MHnrBp06YU8iLuPn78+DDtB6iud+/e/3H48OEXIvV7R7xQMEOHDh1RXFz812+//XaQXrljx45dQt7FF1hGBW3By57kRVy7fv366fqPTpcuXfZkZmbesXPnzm2R/P0tIRQyFGl3+vTpl8i7eMAI0GK6du16aM6cOW9ee+21JegOwBFffPFFxvz58++l9tP3YseJijpPXsTvqP08TkONiJ8kt4xQGFx22WWjyEX8c2Vl5VCt0ht5ZWTu3LlLu3fvXouuAZiTJ0/Gzps3bxqvaBgJZpikpKSdNKS9e+vWrV9bxRaWEwpm5syZ0WvXrv33oqKiuQ0NDZ2N9znuYvLkyR889thja7B13brwlvCXX375qpUrV96qx0W0a9fubFZW1rzx48f/51tvvWWp4aolhcJg9OjR/QsLC988derUBP19cicLb7/99sXTp0/fj25jLZYsWZLzzjvv3EnDjD76+926dVvdp0+fezdv3nzAinaxtFAYDBgw4I6jR4/+6syZM7319+nXY/2999774bhx406gC0U269at6/Hmm2/eQl7mWP39uLi4I7169fppQUHBX61sHwiFMHHixA68jFpcXPwIDUfitPmLppycnNX33Xffx5dffvkpdKnI4ptvvun2xz/+8eb9+/dPoL4QrQ0zzmRmZv6Glz3z8/PrrW4nCMWlw5G0Y8eO/aa0tPRWveHwhCd5HisfeOCBpUOGDKmEpcKbXbt2Jf3ud7+bRp7CZH2ikn8Y0tLSPkhPT3+EhhmI4oVQuIbE4LKTJ0/+V1lZGUd2XjRQdHT0+dzc3FUzZ85choCt8IMDpt56663r9u3bN6mpqam99kfNqampK7t37/5vJCJbYSkIhUeMHDlybElJya9IMK5uZTj65SG3dNMtt9zy2bRp0wphKXOzdOnSPh9++OH1NLwco3uKDAnEVxkZGT/dsmXLelgKQuETQ4cOnUTDkedPnTo13v7PUlJS9ubl5X12zz33bMOyqnngZc4//elPI1asWHF9eXn5QPs/79at21oaZvxs586dq2AtCIVfGT58+NXHjx//GXkY39XHtkznzp3LSFDy77rrrtWDBg1CwpwQsWfPnsRFixZNIAGYePbs2VQ7T7CRPIgve/bs+fz27du/grUgFAFl1KhROSdOnPg5icZ0PWjLaIzp6enbJkyYsGrWrFnb27VrBy8jwFAdRC1cuHD46tWrJx07dmyEvYhzsBSJw5IePXo89/XXXyM+BkIRXEaPHp1Mbu1PSDRmnTt3rqf9n3fq1KkiJydnPQ1NNtxwww1FsJh/+fTTT7NoaHHl/v37x5L9kx3Y/ziJw0IaHr64efPmClgMQhFyWw4ZMuR7NCT5IQnHRBoft7P/QHx8fCmJxqYpU6ZswCY07+FNWp9//jmLw5iampo0+z+Pjo5uIGHIpyHG73ft2vU3egseHYTClF5G2qlTpx4m0biDGnKmo88kJCQc7dev39dXXHHFjptvvvlgbGxsIyznmNra2piPP/6438aNG4cdPHhwVHV1dS9HnyMhLiZx+Gu3bt1eRQwEhCKsGDRo0GRq2LNIOK4j17iHo8/Q+PlcWlraLvrsNhqebB86dKjlA7p27tyZRMOK4Xv27BlRWlo6pKGhoZOjz9HQ4gQJwzIS3oX0WWQug1CENzSOjnriiSfyTp48OYuGJlPr6upSnH2WvQ0Sjv19+/YtGD9+/P6xY8eejHT7rF+/vvvatWtzDh06NICEIceZ18B07NixnIYWy7t3777w17/+9Yq8vDwMLSAUkWl38h4mnjlz5taqqqrJnHmL6sFpJXTo0KGKOsX+zMzMA/379y+m4UpJOJ9Xwudf0DAi48CBA5nFxcX9STxz6uvrE50aKyqqmTNJJSYmroyLi/uAPId8zDtAKCzHuHHjepw+ffrWioqK6ysrK8eSt5Hc1t8h8fg2KSnpCI3Jj/Tu3bukT58+x3Nzc8sGDx5cZYagLw522r17d+K+fftSCwsLex45ciSjrKysN32/3iQKbR4oTV5DBX2/9cnJyZ917dr1g3Xr1mEHL4QC6IwcOXIweRtTa2pqriZvYyRdZ7nyOOx+fRs6d+5cTsOXMvoVLqfOVh4fH3+GrmvIXa8mYalOT0+vycrKqqHPeTyBevbs2ZiioiI+bCmeOn4CDaMS6Bnj6VnjSARS6DqFhg2p9LkU7WyVtp65mTyFInrGLfSsX9H18i1btuxGS4BQAA+YOHFi6okTJ66lzndFbW3tUHodQOKRbh9U5HHlR0U18hEGfM0Tqrx/hbwRfq+OE8iSVxDD+yKMiUROTe+P/ycJwTESqYLY2Nid9LqxR48eX+Tn55ehpiEUwM/ceOONnWl8P+bcuXOjWTzInc+i1wxeWTl//nyXUD9f+/btv+UVCRKDEhomFbEo0P3mzMzMTZ988slZ1CCEAoSYadOmdSURySXRyCUvoDd5BCnkHaSQgCRR6Ub3/NqFt1lT6SDbraMcLUGyp0Evzby9nko9v7II0PuV9HqKSiW9V0735eSJHCEx2EdisG/p0qWnURORw/8JMACD5yp1022SIAAAAABJRU5ErkJggg==;" parent="1" vertex="1">
          <mxGeometry x="250" y="567" width="60" height="60" as="geometry" />
        </mxCell>
        <mxCell id="Uo1aGH2p8OZAJki927kH-2" value="사용자" style="text;html=1;align=center;verticalAlign=middle;whiteSpace=wrap;rounded=0;" parent="1" vertex="1">
          <mxGeometry x="250" y="530" width="60" height="30" as="geometry" />
        </mxCell>
        <mxCell id="Uo1aGH2p8OZAJki927kH-9" value="Controller&lt;div&gt;(Main)&lt;/div&gt;" style="rounded=0;whiteSpace=wrap;html=1;strokeColor=none;fillColor=#D4E1F5;" parent="1" vertex="1">
          <mxGeometry x="240" y="670" width="80" height="40" as="geometry" />
        </mxCell>
        <mxCell id="Uo1aGH2p8OZAJki927kH-4" value="&lt;font style=&quot;font-size: 8px;&quot;&gt;사이트 접속&lt;/font&gt;" style="rounded=0;whiteSpace=wrap;html=1;fillColor=#E6E6E6;strokeColor=none;" parent="1" vertex="1">
          <mxGeometry x="230" y="630" width="50" height="20" as="geometry" />
        </mxCell>
        <mxCell id="5OOG3vR-NtibS3uYiGRl-37" value="" style="edgeStyle=orthogonalEdgeStyle;rounded=0;orthogonalLoop=1;jettySize=auto;html=1;" parent="1" source="5OOG3vR-NtibS3uYiGRl-5" target="5OOG3vR-NtibS3uYiGRl-7" edge="1">
          <mxGeometry relative="1" as="geometry" />
        </mxCell>
        <mxCell id="5OOG3vR-NtibS3uYiGRl-5" value="DAO&lt;div&gt;(관심 모임 조회)&lt;/div&gt;" style="rounded=0;whiteSpace=wrap;html=1;strokeColor=none;fillColor=#D5E8D4;" parent="1" vertex="1">
          <mxGeometry x="390" y="615" width="100" height="50" as="geometry" />
        </mxCell>
        <mxCell id="5OOG3vR-NtibS3uYiGRl-38" value="" style="edgeStyle=orthogonalEdgeStyle;rounded=0;orthogonalLoop=1;jettySize=auto;html=1;" parent="1" source="5OOG3vR-NtibS3uYiGRl-6" target="5OOG3vR-NtibS3uYiGRl-7" edge="1">
          <mxGeometry relative="1" as="geometry" />
        </mxCell>
        <mxCell id="5OOG3vR-NtibS3uYiGRl-6" value="DAO&lt;div&gt;(전체 모임 조회)&lt;/div&gt;" style="rounded=0;whiteSpace=wrap;html=1;strokeColor=none;fillColor=#D5E8D4;" parent="1" vertex="1">
          <mxGeometry x="390" y="720" width="100" height="50" as="geometry" />
        </mxCell>
        <mxCell id="5OOG3vR-NtibS3uYiGRl-7" value="메인화면" style="rounded=0;whiteSpace=wrap;html=1;fillColor=#F8CECC;strokeColor=none;" parent="1" vertex="1">
          <mxGeometry x="530" y="670" width="60" height="46" as="geometry" />
        </mxCell>
        <mxCell id="5OOG3vR-NtibS3uYiGRl-8" value="" style="edgeStyle=orthogonalEdgeStyle;rounded=0;orthogonalLoop=1;jettySize=auto;html=1;exitX=1;exitY=0.5;exitDx=0;exitDy=0;entryX=0;entryY=0.5;entryDx=0;entryDy=0;" parent="1" source="Uo1aGH2p8OZAJki927kH-9" target="5OOG3vR-NtibS3uYiGRl-5" edge="1">
          <mxGeometry relative="1" as="geometry">
            <Array as="points">
              <mxPoint x="350" y="690" />
              <mxPoint x="350" y="640" />
            </Array>
            <mxPoint x="500" y="599.66" as="sourcePoint" />
            <mxPoint x="580" y="599.66" as="targetPoint" />
          </mxGeometry>
        </mxCell>
        <mxCell id="5OOG3vR-NtibS3uYiGRl-9" value="" style="edgeStyle=orthogonalEdgeStyle;rounded=0;orthogonalLoop=1;jettySize=auto;html=1;exitX=1;exitY=0.5;exitDx=0;exitDy=0;entryX=0;entryY=0.5;entryDx=0;entryDy=0;" parent="1" source="Uo1aGH2p8OZAJki927kH-9" target="5OOG3vR-NtibS3uYiGRl-6" edge="1">
          <mxGeometry relative="1" as="geometry">
            <Array as="points">
              <mxPoint x="350" y="690" />
              <mxPoint x="350" y="745" />
            </Array>
            <mxPoint x="480" y="600" as="sourcePoint" />
            <mxPoint x="400" y="760" as="targetPoint" />
          </mxGeometry>
        </mxCell>
        <mxCell id="5OOG3vR-NtibS3uYiGRl-10" value="&lt;font style=&quot;font-size: 8px;&quot;&gt;비회원&lt;/font&gt;" style="rounded=0;whiteSpace=wrap;html=1;fillColor=#E6E6E6;strokeColor=none;" parent="1" vertex="1">
          <mxGeometry x="330" y="750" width="40" height="20" as="geometry" />
        </mxCell>
        <mxCell id="5OOG3vR-NtibS3uYiGRl-11" value="&lt;font style=&quot;font-size: 8px;&quot;&gt;회원&lt;/font&gt;" style="rounded=0;whiteSpace=wrap;html=1;fillColor=#E6E6E6;strokeColor=none;" parent="1" vertex="1">
          <mxGeometry x="340" y="615" width="30" height="20" as="geometry" />
        </mxCell>
        <mxCell id="5OOG3vR-NtibS3uYiGRl-24" value="" style="edgeStyle=orthogonalEdgeStyle;rounded=0;orthogonalLoop=1;jettySize=auto;html=1;" parent="1" source="5OOG3vR-NtibS3uYiGRl-13" target="5OOG3vR-NtibS3uYiGRl-16" edge="1">
          <mxGeometry relative="1" as="geometry" />
        </mxCell>
        <mxCell id="5OOG3vR-NtibS3uYiGRl-13" value="카테고리 선택" style="rounded=0;whiteSpace=wrap;html=1;fillColor=#FFF2CC;strokeColor=none;" parent="1" vertex="1">
          <mxGeometry x="652.5" y="560" width="82.5" height="46" as="geometry" />
        </mxCell>
        <mxCell id="5OOG3vR-NtibS3uYiGRl-25" value="" style="edgeStyle=orthogonalEdgeStyle;rounded=0;orthogonalLoop=1;jettySize=auto;html=1;" parent="1" source="5OOG3vR-NtibS3uYiGRl-14" target="5OOG3vR-NtibS3uYiGRl-16" edge="1">
          <mxGeometry relative="1" as="geometry" />
        </mxCell>
        <mxCell id="5OOG3vR-NtibS3uYiGRl-14" value="전체보기 클릭" style="rounded=0;whiteSpace=wrap;html=1;fillColor=#FFF2CC;strokeColor=none;" parent="1" vertex="1">
          <mxGeometry x="657.5" y="670" width="85" height="46" as="geometry" />
        </mxCell>
        <mxCell id="5OOG3vR-NtibS3uYiGRl-28" value="" style="edgeStyle=orthogonalEdgeStyle;rounded=0;orthogonalLoop=1;jettySize=auto;html=1;" parent="1" source="5OOG3vR-NtibS3uYiGRl-15" target="5OOG3vR-NtibS3uYiGRl-27" edge="1">
          <mxGeometry relative="1" as="geometry" />
        </mxCell>
        <mxCell id="5OOG3vR-NtibS3uYiGRl-15" value="검색 실행" style="rounded=0;whiteSpace=wrap;html=1;fillColor=#FFF2CC;strokeColor=none;" parent="1" vertex="1">
          <mxGeometry x="665" y="780" width="70" height="40" as="geometry" />
        </mxCell>
        <mxCell id="5OOG3vR-NtibS3uYiGRl-26" value="" style="edgeStyle=orthogonalEdgeStyle;rounded=0;orthogonalLoop=1;jettySize=auto;html=1;" parent="1" source="5OOG3vR-NtibS3uYiGRl-16" target="5OOG3vR-NtibS3uYiGRl-18" edge="1">
          <mxGeometry relative="1" as="geometry" />
        </mxCell>
        <mxCell id="5OOG3vR-NtibS3uYiGRl-16" value="Controller&lt;div&gt;(MainData)&lt;/div&gt;" style="rounded=0;whiteSpace=wrap;html=1;strokeColor=none;fillColor=#D4E1F5;" parent="1" vertex="1">
          <mxGeometry x="780" y="620" width="80" height="40" as="geometry" />
        </mxCell>
        <mxCell id="5OOG3vR-NtibS3uYiGRl-18" value="DAO&lt;div&gt;(카테고리별 모임 조회)&lt;/div&gt;" style="rounded=0;whiteSpace=wrap;html=1;strokeColor=none;fillColor=#D5E8D4;" parent="1" vertex="1">
          <mxGeometry x="900" y="615" width="130" height="50" as="geometry" />
        </mxCell>
        <mxCell id="5OOG3vR-NtibS3uYiGRl-23" value="" style="edgeStyle=orthogonalEdgeStyle;rounded=0;orthogonalLoop=1;jettySize=auto;html=1;entryX=0;entryY=0.652;entryDx=0;entryDy=0;entryPerimeter=0;exitX=1;exitY=0.5;exitDx=0;exitDy=0;" parent="1" source="5OOG3vR-NtibS3uYiGRl-7" target="5OOG3vR-NtibS3uYiGRl-15" edge="1">
          <mxGeometry relative="1" as="geometry">
            <mxPoint x="780" y="590" as="sourcePoint" />
            <mxPoint x="830" y="487" as="targetPoint" />
            <Array as="points">
              <mxPoint x="620" y="693" />
              <mxPoint x="620" y="806" />
            </Array>
          </mxGeometry>
        </mxCell>
        <mxCell id="5OOG3vR-NtibS3uYiGRl-30" value="" style="edgeStyle=orthogonalEdgeStyle;rounded=0;orthogonalLoop=1;jettySize=auto;html=1;" parent="1" source="5OOG3vR-NtibS3uYiGRl-27" target="5OOG3vR-NtibS3uYiGRl-29" edge="1">
          <mxGeometry relative="1" as="geometry" />
        </mxCell>
        <mxCell id="5OOG3vR-NtibS3uYiGRl-27" value="Controller&lt;div&gt;(SearchData)&lt;/div&gt;" style="rounded=0;whiteSpace=wrap;html=1;strokeColor=none;fillColor=#D4E1F5;" parent="1" vertex="1">
          <mxGeometry x="790" y="780" width="80" height="40" as="geometry" />
        </mxCell>
        <mxCell id="5OOG3vR-NtibS3uYiGRl-29" value="DAO&lt;div&gt;(검색기록 저장, 결과 조회)&lt;/div&gt;" style="rounded=0;whiteSpace=wrap;html=1;strokeColor=none;fillColor=#D5E8D4;" parent="1" vertex="1">
          <mxGeometry x="910" y="775" width="150" height="50" as="geometry" />
        </mxCell>
        <mxCell id="5OOG3vR-NtibS3uYiGRl-39" value="" style="edgeStyle=orthogonalEdgeStyle;rounded=0;orthogonalLoop=1;jettySize=auto;html=1;entryX=0;entryY=0.5;entryDx=0;entryDy=0;exitX=1;exitY=0.5;exitDx=0;exitDy=0;" parent="1" source="5OOG3vR-NtibS3uYiGRl-7" target="5OOG3vR-NtibS3uYiGRl-13" edge="1">
          <mxGeometry relative="1" as="geometry">
            <mxPoint x="600" y="703" as="sourcePoint" />
            <mxPoint x="668" y="816" as="targetPoint" />
            <Array as="points">
              <mxPoint x="620" y="693" />
              <mxPoint x="620" y="583" />
            </Array>
          </mxGeometry>
        </mxCell>
        <mxCell id="5OOG3vR-NtibS3uYiGRl-40" value="" style="edgeStyle=orthogonalEdgeStyle;rounded=0;orthogonalLoop=1;jettySize=auto;html=1;entryX=0;entryY=0.5;entryDx=0;entryDy=0;exitX=1;exitY=0.5;exitDx=0;exitDy=0;" parent="1" source="5OOG3vR-NtibS3uYiGRl-7" target="5OOG3vR-NtibS3uYiGRl-14" edge="1">
          <mxGeometry relative="1" as="geometry">
            <mxPoint x="590" y="660" as="sourcePoint" />
            <mxPoint x="650" y="635" as="targetPoint" />
            <Array as="points">
              <mxPoint x="650" y="693" />
            </Array>
          </mxGeometry>
        </mxCell>
      </root>
    </mxGraphModel>
  </diagram>
</mxfile>
